<?xml version="1.0" encoding="UTF-8"?>
<svg width="32px" height="32px" viewBox="0 0 32 32" version="1.1" xmlns="http://www.w3.org/2000/svg" xmlns:xlink="http://www.w3.org/1999/xlink">
    <!-- Generator: Sketch 62 (91390) - https://sketch.com -->
    <title>icon/android</title>
    <desc>Created with Sketch.</desc>
    <g id="icon/android" stroke="none" stroke-width="1" fill="none" fill-rule="evenodd">
        <path d="M24.8164822,10.7273184 L24.8164822,23.5218636 C24.8164822,24.652666 23.9664436,25.5726073 22.882556,25.6504646 L22.7333615,25.6558027 L21.351,25.655 L21.3515181,30.0206617 C21.3515181,31.072826 20.5713876,31.919801 19.5646131,31.9946248 L19.4193062,32 C18.3922017,32 17.5653837,31.2008507 17.4923406,30.1695138 L17.4870933,30.0206617 L17.487,25.655 L14.912,25.655 L14.9127829,30.0206617 C14.9127829,31.072826 14.1326516,31.919801 13.1258771,31.9946248 L12.9805701,32 C11.9534656,32 11.1266482,31.2008507 11.0536051,30.1695138 L11.0483579,30.0206617 L11.048,25.655 L9.66651531,25.6558027 C8.56264269,25.6558027 7.66460909,24.7850267 7.58860593,23.6746976 L7.58339496,23.5218636 L7.58339496,10.7273184 L24.8164822,10.7273184 Z M4.93221249,10.3878278 C5.95931674,10.3878278 6.78613455,11.1869911 6.85917769,12.2183267 L6.86442494,12.3671785 L6.86442494,20.6119455 C6.86442494,21.7142099 6.00822647,22.5912962 4.93221249,22.5912962 C3.90510815,22.5912962 3.07829038,21.7921329 3.00524725,20.7607973 L3,20.6119455 L3,12.3671785 C3,11.264914 3.85619842,10.3878278 4.93221249,10.3878278 Z M27.4677881,10.3878278 C28.4948926,10.3878278 29.3217097,11.1869911 29.3947528,12.2183267 L29.4,12.3671785 L29.4,20.6119455 C29.4,21.7142099 28.5438024,22.5912962 27.4677881,22.5912962 C26.4406835,22.5912962 25.6138656,21.7921329 25.5408225,20.7607973 L25.5355753,20.6119455 L25.5355753,12.3671785 C25.5355753,11.264914 26.3917738,10.3878278 27.4677881,10.3878278 Z M21.5497708,1.33553078e-05 C21.5954472,0.000473066244 21.6380088,0.0125774601 21.6799659,0.036400569 C21.7980639,0.103461175 21.8482235,0.232201315 21.8119278,0.356723655 L21.7864896,0.418328261 L20.4253589,2.93722601 C22.9596346,4.28804917 24.697939,6.81591987 24.8106595,9.73678369 L24.8164822,10.030151 L7.58339496,10.030151 C7.58682572,7.08395882 9.24348586,4.5046246 11.723774,3.07620278 L11.9745175,2.93722601 L10.6133882,0.418328261 C10.5368212,0.276828015 10.58213,0.114637942 10.7199114,0.036400569 C10.7618683,0.0125774601 10.8044302,0.000505604877 10.8501064,1.33553078e-05 C10.9283303,-0.000744331209 11.0032938,0.0311313925 11.0568617,0.0932759889 L11.0927425,0.145522904 L12.4716264,2.69170148 C13.5996071,2.17915964 14.864814,1.89147453 16.1999387,1.89147453 C17.4136874,1.89147453 18.5696529,2.12923082 19.6172669,2.55753951 L19.9282499,2.69170148 L21.3071338,0.145522904 C21.3593049,0.0491088426 21.4519897,-0.000939495671 21.5497708,1.33553078e-05 Z M12.2230486,5.32578333 C11.8296494,5.32578333 11.5040168,5.65935949 11.5040168,6.06235694 C11.5040168,6.46535344 11.8296494,6.79892959 12.2230486,6.79892959 C12.6164478,6.79892959 12.9420799,6.46535344 12.9420799,6.06235694 C12.9420799,5.65935949 12.6164478,5.32578333 12.2230486,5.32578333 Z M20.176781,5.32578333 C19.7833817,5.32578333 19.4577488,5.65935949 19.4577488,6.06235694 C19.4577488,6.46535344 19.7833817,6.79892959 20.176781,6.79892959 C20.5701793,6.79892959 20.8958123,6.46535344 20.8958123,6.06235694 C20.8958123,5.65935949 20.5701793,5.32578333 20.176781,5.32578333 Z" id="Combined-Shape" fill="#A4C639" fill-rule="nonzero"></path>
    </g>
</svg>