<?xml version="1.0" encoding="UTF-8"?>
<svg width="32px" height="32px" viewBox="0 0 32 32" version="1.1" xmlns="http://www.w3.org/2000/svg" xmlns:xlink="http://www.w3.org/1999/xlink">
    <!-- Generator: Sketch 62 (91390) - https://sketch.com -->
    <title>icon/apple</title>
    <desc>Created with Sketch.</desc>
    <g id="icon/apple" stroke="none" stroke-width="1" fill="none" fill-rule="evenodd">
        <path d="M22.1975821,7.65448505 C26.7509571,7.65448505 28.5382631,10.8608905 28.5382631,10.8608905 C28.5382631,10.8608905 25.0381221,12.6352068 25.0381221,16.9314741 C25.0381221,21.78057 29.4,23.4548506 29.4,23.4548506 C29.4,23.4548506 26.3520048,31.9526147 22.2294983,31.9526147 C20.335805,31.9526147 18.8676607,30.6890067 16.8728995,30.6890067 C14.8409027,30.6890067 12.824864,32 11.5109813,32 C7.75019142,32 3,23.9392337 3,17.4632425 C3,11.0872869 7.02143865,7.74399062 10.7928672,7.74399062 C13.2450937,7.74399062 15.1494258,9.14448953 16.4260729,9.14448953 C17.5218618,9.14448953 19.5538586,7.65448505 22.1975821,7.65448505 Z M22.7083398,0 C22.7083398,0 23.1470162,2.59118505 21.0434839,5.08311099 C18.8025348,7.74743432 16.2550409,7.3086046 16.2550409,7.3086046 C16.2550409,7.3086046 15.7740825,5.21893924 17.6556341,2.7688066 C19.7697369,0.0156724902 22.7083398,0 22.7083398,0 Z" id="Combined-Shape" fill="#999999"></path>
    </g>
</svg>