<?xml version="1.0" encoding="UTF-8"?>
<svg width="32px" height="32px" viewBox="0 0 32 32" version="1.1" xmlns="http://www.w3.org/2000/svg" xmlns:xlink="http://www.w3.org/1999/xlink">
    <!-- Generator: Sketch 62 (91390) - https://sketch.com -->
    <title>icon/web</title>
    <desc>Created with Sketch.</desc>
    <g id="icon/web" stroke="none" stroke-width="1" fill="none" fill-rule="evenodd">
        <g id="Group" fill-rule="nonzero">
            <path d="M32,16 C32,11.7517241 30.3448276,7.94482759 27.6413793,5.07586207 C27.6413793,5.07586207 27.6413793,5.07586207 27.6413793,5.07586207 C27.6413793,5.07586207 27.6413793,5.07586207 27.6413793,5.07586207 C24.8275862,2.04137931 20.9103448,0.165517241 16.5517241,0 L16.5517241,0 L16.2206897,0 C16.1655172,0 16.0551724,0 16,0 C15.9448276,0 15.8344828,0 15.7793103,0 L15.4482759,0 L15.4482759,0 C11.0896552,0.165517241 7.17241379,2.04137931 4.35862069,5.02068966 C4.35862069,5.02068966 4.35862069,5.02068966 4.35862069,5.02068966 C4.35862069,5.02068966 4.35862069,5.02068966 4.35862069,5.02068966 C1.65517241,7.94482759 0,11.7517241 0,16 C0,24.662069 6.89655172,31.6689655 15.4482759,32 L15.4482759,32 L15.7793103,32 C15.8344828,32 15.9448276,32 16,32 C16.0551724,32 16.1655172,32 16.2206897,32 L16.5517241,32 L16.5517241,32 C25.1034483,31.6689655 32,24.662069 32,16 Z" id="Path" fill="#FFFFFF"></path>
            <path d="M1.10344828,16.5517241 L7.72413793,16.5517241 C7.77931034,18.8689655 8.22068966,21.1862069 9.04827586,23.2827586 C7.50344828,23.8344828 5.95862069,24.6068966 4.57931034,25.5448276 C2.53793103,23.1172414 1.26896552,19.9724138 1.10344828,16.5517241 Z" id="Path" fill="#5C675B"></path>
            <path d="M4.91034483,6.06896552 C6.28965517,6.95172414 7.72413793,7.66896552 9.26896552,8.22068966 C8.33103448,10.4827586 7.77931034,12.9103448 7.72413793,15.4482759 L1.10344828,15.4482759 C1.26896552,11.862069 2.64827586,8.60689655 4.91034483,6.06896552 Z" id="Path" fill="#FBCA74"></path>
            <path d="M30.8965517,15.4482759 L24.2758621,15.4482759 C24.2206897,12.9103448 23.6689655,10.4827586 22.7862069,8.22068966 C24.3310345,7.66896552 25.7655172,6.95172414 27.1448276,6.06896552 C29.3517241,8.60689655 30.7310345,11.862069 30.8965517,15.4482759 Z" id="Path" fill="#5B956B"></path>
            <path d="M16.5517241,1.43448276 C18.537931,3.14482759 20.0827586,5.24137931 21.2413793,7.50344828 C19.7517241,7.94482759 18.1517241,8.16551724 16.5517241,8.22068966 L16.5517241,1.43448276 Z" id="Path" fill="#FA6E42"></path>
            <path d="M15.4482759,9.37931034 L15.4482759,15.4482759 L8.82758621,15.4482759 C8.88275862,13.0758621 9.37931034,10.7034483 10.3172414,8.55172414 C11.9724138,9.04827586 13.6827586,9.32413793 15.4482759,9.37931034 Z" id="Path" fill="#FA6E42"></path>
            <path d="M10.7586207,7.55862069 C11.862069,5.24137931 13.462069,3.2 15.4482759,1.48965517 L15.4482759,8.27586207 C13.8482759,8.22068966 12.3034483,7.94482759 10.7586207,7.55862069 Z" id="Path" fill="#FC523E"></path>
            <path d="M16.5517241,9.37931034 C18.3172414,9.32413793 20.0275862,9.04827586 21.6827586,8.60689655 C22.5655172,10.7586207 23.062069,13.0758621 23.1724138,15.5034483 L16.5517241,15.5034483 L16.5517241,9.37931034 Z" id="Path" fill="#F7A348"></path>
            <path d="M22.2896552,7.22758621 C21.2413793,5.02068966 19.7517241,2.97931034 17.9310345,1.26896552 C21.1862069,1.65517241 24.0551724,3.14482759 26.3172414,5.29655172 C25.0482759,6.06896552 23.7241379,6.73103448 22.2896552,7.22758621 Z" id="Path" fill="#5C675B"></path>
            <path d="M9.71034483,7.22758621 C8.33103448,6.73103448 6.95172414,6.06896552 5.68275862,5.29655172 C7.94482759,3.14482759 10.8137931,1.65517241 14.0689655,1.26896552 C12.2482759,2.97931034 10.7586207,4.96551724 9.71034483,7.22758621 Z" id="Path" fill="#FE8362"></path>
            <path d="M8.82758621,16.5517241 L15.4482759,16.5517241 L15.4482759,22.0689655 C13.6275862,22.1241379 11.862069,22.4 10.0965517,22.8965517 C9.32413793,20.9103448 8.88275862,18.7586207 8.82758621,16.5517241 Z" id="Path" fill="#5B956B"></path>
            <path d="M15.4482759,23.1724138 L15.4482759,30.5103448 C13.3517241,28.6896552 11.6965517,26.4275862 10.537931,23.9448276 C12.137931,23.5034483 13.7931034,23.2275862 15.4482759,23.1724138 Z" id="Path" fill="#54A95F"></path>
            <path d="M16.5517241,30.5655172 L16.5517241,23.1724138 C18.2068966,23.2275862 19.862069,23.5034483 21.462069,23.9448276 C20.3034483,26.4275862 18.6482759,28.6896552 16.5517241,30.5655172 Z" id="Path" fill="#39B190"></path>
            <path d="M16.5517241,22.0689655 L16.5517241,16.5517241 L23.1724138,16.5517241 C23.1172414,18.7586207 22.6758621,20.9103448 21.9034483,22.9517241 C20.137931,22.4 18.3724138,22.1241379 16.5517241,22.0689655 Z" id="Path" fill="#5CB8E3"></path>
            <path d="M24.2758621,16.5517241 L30.8965517,16.5517241 C30.7862069,19.9724138 29.462069,23.1172414 27.4206897,25.5448276 C26.0413793,24.6068966 24.4965517,23.8344828 22.9517241,23.2827586 C23.7241379,21.1862069 24.2206897,18.8689655 24.2758621,16.5517241 Z" id="Path" fill="#3B8ACA"></path>
            <path d="M5.35172414,26.3724138 C6.67586207,25.4896552 8.05517241,24.8275862 9.48965517,24.2758621 C10.537931,26.7034483 12.0827586,28.8551724 14.0689655,30.7310345 C10.6482759,30.3448276 7.6137931,28.7448276 5.35172414,26.3724138 Z" id="Path" fill="#55D3BD"></path>
            <path d="M17.9310345,30.7862069 C19.862069,28.9103448 21.4068966,26.7586207 22.5103448,24.3310345 C23.9448276,24.8275862 25.3793103,25.5448276 26.6482759,26.4275862 C24.3862069,28.7448276 21.3517241,30.3448276 17.9310345,30.7862069 Z" id="Path" fill="#557253"></path>
        </g>
    </g>
</svg>